<?xml version="1.0" standalone="no"?>
<!DOCTYPE svg PUBLIC "-//W3C//DTD SVG 20010904//EN"
 "http://www.w3.org/TR/2001/REC-SVG-20010904/DTD/svg10.dtd">
<svg version="1.0" xmlns="http://www.w3.org/2000/svg"
 width="744.000000pt" height="744.000000pt" viewBox="0 0 744.000000 744.000000"
 preserveAspectRatio="xMidYMid meet">
<metadata>
Created by potrace 1.14, written by Peter Selinger 2001-2017
</metadata>
<g transform="translate(0.000000,744.000000) scale(0.100000,-0.100000)"
fill="#000000" stroke="none">
<path d="M330 5840 l0 -291 26 -51 c144 -284 148 -714 9 -940 l-35 -56 0 -274
c0 -214 3 -278 14 -293 52 -77 103 -276 118 -468 19 -239 -16 -447 -96 -577
l-36 -58 0 -314 c0 -172 4 -318 8 -325 9 -14 140 -77 569 -274 38 -17 142 -66
233 -109 210 -99 331 -156 400 -188 85 -39 316 -146 410 -190 269 -126 462
-217 690 -322 69 -32 175 -82 235 -111 l110 -54 1285 0 c1317 1 1392 2 1640
41 253 39 406 83 575 166 175 86 311 190 427 328 166 197 237 381 263 685 8
81 -15 251 -47 353 -82 268 -314 518 -577 623 -36 15 -67 31 -68 36 -2 5 20
22 49 38 348 186 515 543 454 973 -32 228 -106 382 -256 532 -162 162 -32 104
-1825 815 -341 135 -681 271 -755 301 -293 121 -380 154 -494 188 -141 43
-327 82 -457 96 -57 6 -635 10 -1481 10 l-1388 0 0 -290z m5281 -1380 c198
-20 300 -59 384 -145 173 -177 177 -498 7 -657 -65 -61 -120 -92 -230 -127
-184 -60 -199 -61 -1548 -61 -837 0 -1224 3 -1224 10 0 6 7 21 15 34 29 43 66
151 85 248 44 213 12 467 -80 649 -11 21 -20 43 -20 49 0 14 2468 14 2611 0z
m179 -1719 c292 -63 450 -252 451 -541 1 -115 -12 -176 -53 -253 -58 -107
-167 -186 -317 -227 -117 -32 -238 -41 -721 -50 -261 -5 -614 -14 -785 -19
-170 -6 -434 -13 -585 -16 -151 -4 -387 -10 -524 -16 -136 -5 -251 -7 -256 -4
-4 2 6 30 21 62 122 251 132 634 23 946 -20 56 -38 110 -41 120 -5 16 64 17
1348 17 1274 -1 1359 -2 1439 -19z"/>
</g>
</svg>
